<svg width="30" height="31" viewBox="0 0 30 31" fill="none" xmlns="http://www.w3.org/2000/svg">
<path d="M20.9321 21.093L17.1071 17.268M17.1071 17.268C17.8322 16.5427 18.326 15.6186 18.526 14.6127C18.726 13.6067 18.6233 12.564 18.2307 11.6165C17.8382 10.669 17.1735 9.85909 16.3207 9.2893C15.4678 8.71951 14.4652 8.41539 13.4396 8.41539C12.414 8.41539 11.4113 8.71951 10.5585 9.2893C9.70573 9.85909 9.04103 10.669 8.64847 11.6165C8.25592 12.564 8.15315 13.6067 8.35315 14.6127C8.55315 15.6186 9.04694 16.5427 9.77209 17.268C10.2537 17.7497 10.8254 18.1318 11.4547 18.3925C12.084 18.6532 12.7585 18.7874 13.4396 18.7874C14.1207 18.7874 14.7952 18.6532 15.4245 18.3925C16.0538 18.1318 16.6255 17.7497 17.1071 17.268ZM29.0001 15.33C29.0001 18.0653 28.189 20.7391 26.6694 23.0134C25.1498 25.2877 22.9899 27.0604 20.4628 28.1072C17.9358 29.1539 15.1551 29.4279 12.4724 28.8943C9.78963 28.3608 7.32536 27.0437 5.39116 25.1096C3.45696 23.1756 2.1397 20.7114 1.60596 18.0287C1.07221 15.346 1.34595 12.5653 2.39255 10.0382C3.43916 7.51106 5.21163 5.35104 7.48583 3.83126C9.76003 2.31148 12.4338 1.5002 15.1691 1.5C16.9854 1.49987 18.7839 1.8575 20.4619 2.55246C22.14 3.24742 23.6647 4.26611 24.949 5.55036C26.2334 6.83461 27.2522 8.35926 27.9473 10.0373C28.6423 11.7153 29.0001 13.5137 29.0001 15.33Z" stroke="#4B4B4B" stroke-width="2" stroke-linecap="round" stroke-linejoin="round"/>
</svg>
