<svg width="30" height="31" viewBox="0 0 30 31" fill="none" xmlns="http://www.w3.org/2000/svg">
<path d="M14.83 10.72V19.94M19.44 15.33H10.22M28.661 15.33C28.661 18.0653 27.8499 20.7391 26.3303 23.0134C24.8107 25.2877 22.6508 27.0604 20.1237 28.1072C17.5967 29.1539 14.816 29.4279 12.1333 28.8943C9.45052 28.3608 6.98625 27.0437 5.05205 25.1096C3.11785 23.1756 1.80059 20.7114 1.26684 18.0287C0.733098 15.346 1.00684 12.5653 2.05344 10.0382C3.10005 7.51106 4.87252 5.35104 7.14672 3.83126C9.42092 2.31148 12.0947 1.5002 14.83 1.5C16.6462 1.49987 18.4448 1.8575 20.1228 2.55246C21.8009 3.24742 23.3256 4.26611 24.6099 5.55036C25.8943 6.83461 26.9131 8.35926 27.6081 10.0373C28.3032 11.7153 28.661 13.5137 28.661 15.33Z" stroke="#4B4B4B" stroke-width="2" stroke-linecap="round" stroke-linejoin="round"/>
</svg>
