<svg width="35" height="30" viewBox="0 0 35 30" fill="none" xmlns="http://www.w3.org/2000/svg">
<path d="M29.345 11.899C29.7747 15.1889 30.0307 18.4992 30.112 21.816C25.6132 23.695 21.3057 26.0026 17.249 28.707C13.1931 26.0021 8.88623 23.6937 4.38802 21.814C4.4693 18.4972 4.72532 15.1869 5.15502 11.897C9.3264 13.2986 13.3727 15.0453 17.254 17.119C21.1318 15.0459 25.1754 13.2992 29.343 11.897M5.15402 11.899C3.78402 11.4377 2.39902 11.0137 0.999023 10.627C6.09855 7.05161 11.5422 3.99413 17.249 1.5C22.9558 3.99349 28.3994 7.05031 33.499 10.625C32.099 11.013 30.7144 11.437 29.345 11.897M9.04302 19.48C9.27491 19.4806 9.50176 19.4124 9.69486 19.284C9.88797 19.1556 10.0387 18.9729 10.1278 18.7588C10.217 18.5448 10.2407 18.3091 10.1959 18.0816C10.1511 17.8541 10.0399 17.6449 9.87617 17.4807C9.71248 17.3164 9.50375 17.2044 9.27639 17.1589C9.04903 17.1133 8.81325 17.1362 8.59891 17.2246C8.38456 17.3131 8.20127 17.4632 8.07224 17.6558C7.9432 17.8485 7.87422 18.0751 7.87402 18.307C7.87389 18.461 7.90411 18.6135 7.96295 18.7558C8.02179 18.8981 8.1081 19.0274 8.21694 19.1364C8.32578 19.2453 8.45503 19.3317 8.59729 19.3907C8.73955 19.4497 8.89203 19.48 9.04602 19.48H9.04302ZM9.04302 19.48V13.738C11.6932 12.0913 14.4306 10.5891 17.243 9.238M6.29902 27.282C7.1708 26.4122 7.8621 25.3787 8.33318 24.2409C8.80426 23.1031 9.04584 21.8835 9.04402 20.652V18.307" stroke="#4B4B4B" stroke-width="2" stroke-linecap="round" stroke-linejoin="round"/>
</svg>
