<svg width="43" height="63" viewBox="0 0 43 63" fill="none" xmlns="http://www.w3.org/2000/svg">
<g clip-path="url(#clip0_4320_1467)">
<path d="M17.6434 0.905887C10.2579 2.38824 4.67772 7.08236 2.13383 13.4235C0.902912 16.8 0.656729 20.6706 1.31322 24.7882C3.11856 35.3294 7.13955 44.8824 13.13 53.6118C14.443 55.5059 15.838 57.3176 17.3151 59.0471C18.1357 59.9529 19.0384 60.7765 19.9411 61.6824C21.0079 62.7529 21.8285 62.6706 22.9773 61.7647C23.6338 61.1882 24.2903 60.5294 24.9468 59.9529C26.506 58.3059 27.9831 56.5765 29.3781 54.8471C35.7789 46.1176 39.964 36.2353 42.0976 25.2824C42.3437 24.1294 42.4258 22.8941 42.5079 21.7412C42.0155 7.98824 30.1987 -1.5647 17.6434 0.905887Z" fill="white"/>
<path d="M28.5574 23.6353C28.5574 23.2235 28.3933 22.7294 28.1471 22.4824C26.0135 20.4235 23.8799 18.4471 21.5822 16.3882C19.2845 18.5294 16.9868 20.5882 14.8532 22.6471C14.607 22.8941 14.4429 23.3059 14.4429 23.6353C14.4429 26.0235 14.4429 28.4941 14.4429 30.8824C14.4429 31.7059 14.8532 32.1177 15.7558 32.1177C19.6127 32.1177 23.4696 32.1177 27.3265 32.1177C28.3112 32.1177 28.7215 31.7059 28.7215 30.7177C28.5574 28.3294 28.5574 25.9412 28.5574 23.6353ZM24.4543 26.2706H18.3818V22.153H24.4543V26.2706Z" fill="black"/>
<path d="M11.2422 21.2471C11.3242 21.0823 11.4884 20.6706 11.8166 20.3412C14.6888 17.7059 17.4788 15.0706 20.351 12.5176C21.1716 11.7765 21.9101 11.8588 22.7307 12.6C25.4388 15.1529 28.2288 17.6235 30.9368 20.0941C31.8395 20.9176 32.0036 21.9059 31.3471 22.4823C30.4445 23.3059 29.7059 22.8118 29.0494 22.1529C26.8338 20.0941 24.5361 18.1176 22.4025 16.0588C21.746 15.4823 21.4178 15.4823 20.8433 16.0588C18.7918 18.0353 16.6582 19.9294 14.5246 21.8235C14.1964 22.1529 13.7861 22.4823 13.3758 22.7294C12.309 23.3059 11.2422 22.6471 11.2422 21.2471Z" fill="black"/>
<path d="M13.3761 18.3647C13.294 16.6353 13.1299 15.0706 13.1299 13.5882C13.1299 13.4235 13.7043 13.1765 13.9505 13.1765C15.4276 13.1765 16.8226 13.2588 18.2177 13.3412C16.6585 14.9059 15.0993 16.5529 13.3761 18.3647Z" fill="black"/>
<path d="M21.4179 63C20.7615 63 20.187 62.6706 19.5305 62.0941C18.792 61.3529 17.8893 60.447 16.9046 59.4588C16.0019 58.5529 15.2634 57.6471 14.5248 56.7412C7.13932 47.6 2.29772 37.0588 0.328254 25.5294C-0.410295 21.3294 1.00701e-05 17.0471 1.55917 13.2588C4.26719 6.50588 10.0935 1.81176 17.479 0.411758C23.5515 -0.741183 29.7882 0.74117 34.6298 4.61176C39.7176 8.64705 42.7538 14.9059 43 21.7412C43 22.0706 43 22.3176 43 22.6471C42.8359 26.2706 41.7691 30.8823 39.6355 36.8118C37.2557 43.5647 33.8912 49.7412 29.7061 55.0941C28.3111 56.9059 26.834 58.6353 25.2748 60.2823C24.5363 61.0235 23.8798 61.6823 23.3054 62.1765C22.6489 62.7529 22.0744 63 21.4179 63ZM21.5821 1.07058C20.2691 1.07058 19.0382 1.23529 17.7252 1.48235C10.6679 2.88235 5.16986 7.32941 2.62596 13.6706C1.14887 17.2941 0.73856 21.3294 1.39505 25.3647C3.36451 36.7294 8.04199 47.0235 15.4275 56.1647C16.084 56.9882 16.9046 57.8941 17.7252 58.8C18.6279 59.7882 19.6126 60.6941 20.2691 61.3529C21.0897 62.1765 21.5821 62.1765 22.5668 61.3529C23.1412 60.8588 23.7977 60.2823 24.4542 59.5412C26.0134 57.9765 27.4905 56.2471 28.8034 54.4353C32.9065 49.1647 36.1889 43.0706 38.5687 36.4C40.6202 30.6353 41.687 26.1059 41.8512 22.5647C41.8512 22.3176 41.8512 21.9882 41.8512 21.6588C41.605 15.1529 38.7328 9.22352 33.8912 5.35293C30.4447 2.63529 26.0134 1.07058 21.5821 1.07058Z" fill="black"/>
<path d="M21.5001 60.8588L21.1718 60.5294C18.3818 58.0588 15.8379 55.0941 13.376 51.4706C7.79588 43.4823 4.1852 34.6706 2.54398 25.2823C1.14894 17.2117 3.77489 10.5412 10.1757 5.92939C16.4944 1.31763 23.6337 0.905861 30.6089 4.52939C38.1585 8.48233 42.0974 16.9647 40.4562 25.6117C37.9944 38.1294 32.5783 49.0823 24.2902 58.2235C23.8799 58.6353 23.4695 59.1294 22.9772 59.5412C22.731 59.7882 22.4848 59.9529 22.2386 60.2C22.0745 60.2823 21.9925 60.447 21.8283 60.5294L21.5001 60.8588ZM21.2539 3.21174C17.6432 3.21174 14.1966 4.44704 10.7501 6.83527C4.67757 11.2 2.29779 17.3764 3.61077 25.1176C5.16993 34.3412 8.78062 42.9882 14.2787 50.8941C16.5764 54.2706 18.9562 57.0706 21.5821 59.3765C21.5821 59.3765 21.5821 59.3765 21.6642 59.3765C21.9104 59.1294 22.1566 58.9647 22.3207 58.8C22.8131 58.3882 23.1413 57.8941 23.5516 57.4823C31.7577 48.5059 37.0917 37.7176 39.4715 25.447C41.0306 17.2941 37.3379 9.30586 30.1986 5.59998C27.1623 3.95292 24.2081 3.21174 21.2539 3.21174Z" fill="black"/>
</g>
<defs>
<clipPath id="clip0_4320_1467">
<rect width="43" height="63" fill="white"/>
</clipPath>
</defs>
</svg>
