<svg width="42" height="63" viewBox="0 0 42 63" fill="none" xmlns="http://www.w3.org/2000/svg">
<g clip-path="url(#clip0_4232_1844)">
<path d="M22.6691 0C23.1365 0.0673077 23.604 0.168269 24.0714 0.235577C32.3178 1.41346 39.3623 7.63942 41.3655 15.75C42.1668 19.0144 42.1668 22.3125 41.5324 25.6106C40.3973 31.6346 38.5276 37.4231 35.8901 42.976C32.5515 49.9423 28.3114 56.2692 22.8027 61.6875C22.4688 62.024 22.1016 62.3606 21.7343 62.6971C21.2001 63.1683 20.7327 63.1683 20.1985 62.6971C18.5626 61.25 17.0602 59.6346 15.658 57.9519C9.8154 51.0192 5.54195 43.2115 2.70411 34.5962C1.66913 31.2308 0.834475 27.8654 0.266907 24.4327C0.200135 23.9615 0.166748 23.524 0.0999758 23.0529C0.0999758 22.9856 0.0332031 22.9183 0.0332031 22.851C0.0332031 21.6058 0.0332031 20.3606 0.0332031 19.1154C0.0665895 19.0481 0.0999758 18.9471 0.0999758 18.8798C0.200135 18.2404 0.266907 17.601 0.367066 16.9615C1.16834 12.5865 3.23829 8.88461 6.44338 5.82211C9.68185 2.75961 13.5213 0.908654 17.9283 0.235577C18.3623 0.168269 18.8297 0.0673077 19.2971 0C20.3989 0 21.534 0 22.6691 0ZM20.9664 60.5433C21.0666 60.4423 21.1334 60.4087 21.1667 60.3413C23.7709 57.7837 26.0412 54.9904 28.1445 52.0288C32.852 45.3317 36.2574 38.0625 38.3941 30.1202C39.1286 27.3942 39.7629 24.6683 39.9299 21.8413C40.03 20.0577 39.8631 18.3077 39.4625 16.5913C38.4943 12.4183 36.2908 9.01923 32.9855 6.36058C29.8472 3.80288 26.2415 2.38942 22.2351 2.12019C20.5324 1.98558 18.8297 2.12019 17.127 2.49038C12.5197 3.5 8.74704 5.88942 5.84242 9.625C3.80586 12.25 2.60395 15.2115 2.20331 18.5096C2.003 20.0913 1.96961 21.6394 2.16993 23.2212C2.37025 24.7019 2.67072 26.1827 3.00459 27.6298C4.50697 34.3606 7.01095 40.6875 10.4497 46.6779C12.6532 50.5481 15.224 54.149 18.162 57.5144C19.03 58.5577 20.0316 59.5337 20.9664 60.5433Z" fill="#07090A"/>
<path d="M20.9662 60.5433C19.998 59.5337 19.0298 58.5577 18.1284 57.5144C15.1904 54.1827 12.653 50.5481 10.4162 46.6779C7.01076 40.7212 4.50678 34.3606 3.0044 27.6298C2.67054 26.1827 2.37006 24.7019 2.16974 23.2212C1.96942 21.6394 2.00281 20.0914 2.20313 18.5096C2.60376 15.2115 3.80567 12.25 5.80885 9.62501C8.71346 5.88943 12.4861 3.50001 17.0934 2.49039C18.7627 2.1202 20.4988 1.98559 22.2015 2.1202C26.2079 2.38943 29.847 3.80289 32.9853 6.36059C36.2572 9.05289 38.4941 12.4183 39.4623 16.5914C39.8629 18.3077 40.0298 20.0577 39.9297 21.8414C39.7627 24.6683 39.1284 27.3942 38.3939 30.1202C36.2906 38.0289 32.8518 45.3317 28.1443 52.0289C26.041 54.9904 23.7707 57.8173 21.1666 60.3414C21.1332 60.4087 21.0664 60.4423 20.9662 60.5433ZM5.74208 21.3702C5.74208 29.8846 12.5529 36.75 20.9662 36.75C29.3128 36.75 36.0902 30.0192 36.2238 21.6394C36.3573 13.024 29.5465 6.12501 21.2333 5.99039C12.653 5.82213 5.70869 12.8558 5.74208 21.3702Z" fill="#1871B9"/>
<path d="M5.74231 21.3702C5.70892 12.8894 12.6533 5.85578 21.2669 5.9904C29.5468 6.12501 36.391 13.0241 36.2574 21.6394C36.1239 30.0192 29.3131 36.7837 20.9999 36.75C12.5531 36.7164 5.74231 29.851 5.74231 21.3702ZM34.1541 21.3702C34.1875 14.1683 28.3782 8.2452 21.3003 8.07693C13.9887 7.90867 7.87903 13.8317 7.84565 21.2356C7.81226 28.6394 13.7216 34.6298 20.9665 34.6298C28.2447 34.6298 34.1541 28.7067 34.1541 21.3702Z" fill="#07090A"/>
<path d="M31.0823 21.3702C31.0823 26.9567 26.5752 31.5336 20.9997 31.5336C15.4241 31.5336 10.917 26.9567 10.917 21.3365C10.917 15.6827 15.4575 11.1731 21.1666 11.1731C26.6086 11.2067 31.0823 15.8173 31.0823 21.3702ZM20.9997 12.7884C16.4257 12.7884 12.4861 16.524 12.4861 21.3702C12.5195 26.1827 16.359 29.9519 20.9997 29.9519C25.8407 29.9183 29.4798 25.9808 29.4798 21.4038C29.5132 16.625 25.7071 12.7884 20.9997 12.7884Z" fill="#020202"/>
<path d="M20.9998 12.7885C25.7073 12.7885 29.5134 16.625 29.5134 21.3702C29.5134 25.9471 25.8409 29.9183 21.0332 29.9183C16.3591 29.9519 12.5197 26.1827 12.4863 21.3702C12.4863 16.524 16.4259 12.7885 20.9998 12.7885Z" fill="#1871B9"/>
</g>
<defs>
<clipPath id="clip0_4232_1844">
<rect width="42" height="63" fill="white"/>
</clipPath>
</defs>
</svg>
